HIERARCHY
ROOT Joint1
{
	OFFSET 0.000000 0.000000 0.000000
	CHANNELS 6 Xposition Yposition Zposition Xrotation Yrotation Zrotation
	JOINT Joint2
	{
		OFFSET -0.000000 0.000000 1.456275
		CHANNELS 6 Xposition Yposition Zposition Xrotation Yrotation Zrotation
		JOINT Joint3
		{
			OFFSET -0.000000 0.000002 1.471446
			CHANNELS 6 Xposition Yposition Zposition Xrotation Yrotation Zrotation
			JOINT Joint4
			{
				OFFSET 0.625745 0.000000 0.917755
				CHANNELS 6 Xposition Yposition Zposition Xrotation Yrotation Zrotation
				JOINT Joint5
				{
					OFFSET -0.629534 0.000001 0.940221
					CHANNELS 6 Xposition Yposition Zposition Xrotation Yrotation Zrotation
					JOINT Joint6
					{
						OFFSET -0.000001 0.113772 1.960660
						CHANNELS 6 Xposition Yposition Zposition Xrotation Yrotation Zrotation
						JOINT Joint7
						{
							OFFSET -0.669733 -0.113771 0.388340
							CHANNELS 6 Xposition Yposition Zposition Xrotation Yrotation Zrotation
							End Site
							{
								OFFSET 0.005509 0.005509 0.438980
							}
						}
					}
				}
			}
		}
	}
}
MOTION
Frames: 27
Frame Time: 0.041667
0.000000 0.000000 0.000000 -0.000000 1.019410 0.047873 -0.000000 0.000000 1.456275 -0.000000 -44.941627 -0.000000 -0.000000 0.000002 1.471446 -0.000000 -1.133465 0.024784 0.625745 0.000000 0.917755 0.000004 134.980930 -0.000001 -0.629534 0.000001 0.940221 0.000000 1.709737 0.042443 -0.000001 0.113772 1.960661 -88.309203 89.964287 -0.003599 -0.669733 -0.113771 0.388340 -0.705033 3.566198 134.956383 
0.000000 0.000000 0.000000 -0.000000 1.019410 0.188653 -0.000000 0.000000 1.456275 -0.000000 -44.811259 0.000000 -0.000000 0.000002 1.471446 -0.000000 -1.133457 0.193780 0.625745 0.000000 0.917755 0.000004 134.871183 -0.000001 -0.629534 0.000001 0.940221 0.000000 1.709736 0.207159 -0.000001 0.113772 1.960661 -88.306409 89.925567 -0.001738 -0.669733 -0.113771 0.388340 -0.704488 3.566197 134.925674 
0.000000 0.000000 0.000000 -0.000000 1.019410 0.410857 -0.000000 -0.000000 1.456275 -0.000000 -44.605483 0.000000 -0.000000 0.000002 1.471446 -0.000000 -1.133460 0.460519 0.625745 0.000000 0.917755 0.000003 134.697983 -0.000001 -0.629534 0.000001 0.940221 -0.000000 1.709737 0.467143 -0.000001 0.113772 1.960660 -88.305330 89.864457 -0.000876 -0.669733 -0.113771 0.388340 -0.703628 3.566196 134.877221 
0.000000 0.000000 0.000000 -0.000000 1.019410 0.704313 -0.000000 0.000000 1.456275 0.000000 -44.333720 -0.000000 -0.000001 0.000002 1.471446 0.000000 -1.133462 0.812791 0.625744 0.000000 0.917755 0.000004 134.469226 -0.000001 -0.629533 0.000001 0.940221 0.000000 1.709736 0.810494 -0.000002 0.113772 1.960660 -88.304729 89.783745 -0.000571 -0.669733 -0.113771 0.388340 -0.702491 3.566193 134.813236 
0.000000 0.000000 0.000000 -0.000000 1.019410 1.058852 -0.000000 0.000000 1.456275 -0.000000 -44.005403 -0.000000 -0.000000 0.000002 1.471446 0.000000 -1.133461 1.238387 0.625744 0.000000 0.917755 0.000004 134.192877 -0.000001 -0.629534 0.000001 0.940221 0.000000 1.709737 1.225312 -0.000001 0.113772 1.960660 -88.304463 89.686230 -0.000417 -0.669733 -0.113771 0.388341 -0.701118 3.566187 134.735918 
0.000000 0.000000 0.000000 -0.000000 1.019410 1.464301 -0.000000 -0.000000 1.456275 0.000000 -43.629923 0.000000 -0.000000 0.000002 1.471446 0.000000 -1.133458 1.725098 0.625745 0.000000 0.917755 0.000003 133.876817 -0.000001 -0.629534 0.000001 0.940221 -0.000000 1.709736 1.699698 -0.000001 0.113772 1.960660 -88.304319 89.574714 -0.000333 -0.669733 -0.113771 0.388340 -0.699547 3.566178 134.647508 
0.000000 0.000000 0.000000 -0.000000 1.019410 1.910492 -0.000000 0.000000 1.456275 -0.000000 -43.216724 0.000000 -0.000000 0.000002 1.471446 0.000000 -1.133456 2.260717 0.625745 0.000000 0.917755 0.000003 133.529023 -0.000001 -0.629534 0.000001 0.940221 0.000000 1.709736 2.221753 -0.000001 0.113772 1.960661 -88.304251 89.451996 -0.000254 -0.669733 -0.113771 0.388340 -0.697819 3.566166 134.550219 
0.000000 0.000000 0.000000 -0.000000 1.019410 2.387254 -0.000000 0.000000 1.456275 -0.000000 -42.775214 -0.000000 -0.000000 0.000002 1.471446 -0.000000 -1.133459 2.833033 0.625744 0.000000 0.917755 0.000003 133.157379 -0.000001 -0.629534 0.000001 0.940221 -0.000000 1.709737 2.779575 -0.000001 0.113772 1.960660 -88.304142 89.320870 -0.000188 -0.669733 -0.113771 0.388340 -0.695973 3.566150 134.446250 
0.000000 0.000000 0.000000 -0.000000 1.019410 2.884415 -0.000000 0.000000 1.456275 0.000000 -42.314815 -0.000000 -0.000000 0.000002 1.471446 0.000000 -1.133458 3.429838 0.625745 0.000000 0.917755 0.000003 132.769848 -0.000002 -0.629534 0.000001 0.940221 -0.000001 1.709736 3.361265 -0.000001 0.113772 1.960660 -88.304121 89.184130 -0.000172 -0.669733 -0.113771 0.388341 -0.694047 3.566130 134.337841 
0.000000 0.000000 0.000000 -0.000000 1.019410 3.391806 -0.000000 0.000000 1.456275 -0.000000 -41.844929 0.000000 -0.000000 0.000002 1.471446 0.000000 -1.133459 4.038922 0.625745 0.000000 0.917755 0.000005 132.374325 -0.000001 -0.629534 0.000001 0.940221 0.000001 1.709737 3.954925 -0.000001 0.113772 1.960660 -88.304073 89.044575 -0.000152 -0.669733 -0.113771 0.388341 -0.692082 3.566105 134.227205 
0.000000 0.000000 0.000000 -0.000000 1.019410 3.907725 -0.000000 0.000000 1.456275 0.000000 -41.367153 -0.000000 -0.000000 0.000002 1.471446 -0.000000 -1.133459 4.658244 0.625744 0.000000 0.917755 0.000002 131.972164 -0.000000 -0.629534 0.000001 0.940221 -0.000000 1.709737 4.558563 -0.000001 0.113772 1.960660 -88.304053 88.902678 -0.000107 -0.669733 -0.113771 0.388340 -0.690084 3.566077 134.114726 
0.000000 0.000000 0.000000 -0.000000 1.019410 4.464351 -0.000000 0.000000 1.456275 -0.000000 -40.851686 -0.000000 -0.000000 0.000002 1.471446 0.000000 -1.133462 5.326430 0.625745 0.000000 0.917755 0.000004 131.538297 -0.000000 -0.629533 0.000001 0.940221 -0.000000 1.709736 5.209828 -0.000001 0.113772 1.960660 -88.304039 88.749586 -0.000092 -0.669733 -0.113771 0.388340 -0.687929 3.566041 133.993340 
0.000000 0.000000 0.000000 -0.000000 1.019410 5.102328 -0.000000 0.000000 1.456275 -0.000001 -40.260881 0.000000 -0.000000 0.000002 1.471446 -0.000000 -1.133458 6.092274 0.625745 0.000000 0.917755 0.000003 131.040977 -0.000001 -0.629534 0.000001 0.940221 -0.000001 1.709736 5.956278 -0.000000 0.113772 1.960660 -88.304012 88.574119 -0.000088 -0.669733 -0.113771 0.388340 -0.685458 3.565995 133.854209 
0.000000 0.000000 0.000000 -0.000000 1.019410 5.862304 -0.000000 -0.000000 1.456275 -0.000001 -39.557088 0.000000 -0.000000 0.000002 1.471446 -0.000000 -1.133463 7.004566 0.625745 0.000000 0.917755 0.000003 130.448567 -0.000001 -0.629534 0.000001 0.940221 -0.000000 1.709736 6.845470 -0.000001 0.113772 1.960660 -88.303998 88.365094 -0.000062 -0.669733 -0.113771 0.388341 -0.682515 3.565932 133.688495 
0.000000 0.000000 0.000000 -0.000000 1.019410 6.784926 -0.000000 -0.000000 1.456275 -0.000000 -38.702686 -0.000000 -0.000001 0.000002 1.471446 0.000000 -1.133457 8.112103 0.625745 0.000000 0.917755 0.000004 129.729389 -0.000002 -0.629534 0.000001 0.940221 -0.000001 1.709736 7.924958 -0.000001 0.113772 1.960661 -88.303998 88.111339 -0.000060 -0.669733 -0.113771 0.388341 -0.678942 3.565844 133.487318 
0.000000 0.000000 0.000000 -0.000000 1.019410 7.882801 -0.000000 0.000000 1.456275 0.000000 -37.685979 -0.000000 -0.000000 0.000002 1.471446 0.000001 -1.133457 9.430017 0.625745 0.000000 0.917755 0.000005 128.873608 0.000002 -0.629533 0.000001 0.940221 -0.000000 1.709736 9.209498 -0.000000 0.113772 1.960661 -88.303957 87.809383 -0.000064 -0.669733 -0.113771 0.388340 -0.674692 3.565723 133.247920 
0.000000 0.000000 0.000000 -0.000000 1.019410 9.056372 -0.000000 0.000000 1.456275 0.000001 -36.599173 -0.000001 -0.000000 0.000002 1.471446 0.000001 -1.133455 10.838802 0.625745 0.000000 0.917755 0.000001 127.958799 0.000001 -0.629534 0.000001 0.940221 0.000001 1.709737 10.582605 -0.000001 0.113772 1.960660 -88.303971 87.486609 -0.000035 -0.669733 -0.113771 0.388340 -0.670150 3.565575 132.992020 
0.000000 0.000000 0.000000 -0.000000 1.019410 10.178047 -0.000000 0.000000 1.456275 0.000000 -35.560434 -0.000001 -0.000000 0.000002 1.471446 -0.000000 -1.133463 12.185286 0.625745 0.000000 0.917755 0.000002 127.084453 -0.000003 -0.629534 0.000001 0.940221 -0.000001 1.709737 11.894991 -0.000001 0.113772 1.960661 -88.303957 87.178103 -0.000027 -0.669733 -0.113771 0.388340 -0.665808 3.565413 132.747418 
0.000000 0.000000 0.000000 -0.000000 1.019410 11.180058 -0.000000 -0.000000 1.456275 0.000001 -34.632505 -0.000001 -0.000000 0.000002 1.471445 -0.000000 -1.133457 13.388127 0.625745 0.000000 0.917755 0.000006 126.303380 -0.000001 -0.629534 0.000001 0.940221 0.000002 1.709737 13.067370 -0.000001 0.113772 1.960660 -88.303950 86.902512 -0.000046 -0.669733 -0.113771 0.388340 -0.661929 3.565253 132.528934 
0.000000 0.000000 0.000000 -0.000000 1.019410 12.233969 -0.000000 -0.000000 1.456275 0.000000 -33.656519 -0.000000 -0.000000 0.000002 1.471446 0.000000 -1.133456 14.653266 0.625744 0.000000 0.917755 0.000001 125.481859 0.000005 -0.629534 0.000001 0.940221 0.000004 1.709737 14.300469 -0.000001 0.113772 1.960660 -88.303950 86.612645 -0.000035 -0.669733 -0.113771 0.388340 -0.657853 3.565069 132.299125 
0.000000 0.000000 0.000000 -0.000000 1.019410 13.571167 -0.000000 -0.000000 1.456275 0.000000 -32.418185 0.000001 -0.000000 0.000002 1.471446 0.000001 -1.133457 16.258470 0.625745 0.000000 0.917755 -0.000001 124.439517 -0.000001 -0.629534 0.000001 0.940221 0.000002 1.709736 15.865025 -0.000001 0.113772 1.960661 -88.303957 86.244867 -0.000046 -0.669733 -0.113771 0.388339 -0.652679 3.564813 132.007531 
0.000000 0.000000 0.000000 -0.000000 1.019410 15.290953 -0.000000 0.000000 1.456275 -0.000001 -30.825552 -0.000000 -0.000000 0.000002 1.471445 -0.000000 -1.133458 18.322942 0.625745 0.000000 0.917755 0.000006 123.098942 -0.000004 -0.629533 0.000001 0.940221 0.000001 1.709737 17.877214 -0.000000 0.113772 1.960661 -88.303937 85.771863 -0.000021 -0.669733 -0.113771 0.388341 -0.646028 3.564443 131.632526 
0.000000 0.000000 0.000000 -0.000000 1.019410 16.964288 -0.000000 0.000000 1.456275 -0.000001 -29.275939 0.000000 -0.000000 0.000002 1.471446 -0.000001 -1.133457 20.331648 0.625745 0.000000 0.917755 0.000002 121.794581 -0.000003 -0.629534 0.000001 0.940221 0.000002 1.709736 19.835057 -0.000001 0.113772 1.960660 -88.303930 85.311631 -0.000034 -0.669733 -0.113771 0.388340 -0.639560 3.564044 131.267643 
0.000000 0.000000 0.000000 -0.000000 1.019410 18.187931 -0.000000 -0.000000 1.456275 -0.000001 -28.142763 -0.000001 -0.000000 0.000002 1.471446 0.000000 -1.133461 21.800545 0.625745 0.000001 0.917755 0.000003 120.840745 -0.000004 -0.629534 0.000001 0.940221 -0.000003 1.709736 21.266747 -0.000001 0.113772 1.960660 -88.303909 84.975080 -0.000022 -0.669734 -0.113771 0.388340 -0.634831 3.563725 131.000829 
0.000000 0.000000 0.000000 -0.000000 1.019410 19.190224 -0.000000 0.000000 1.456275 -0.000001 -27.214573 0.000000 -0.000000 0.000002 1.471446 -0.000001 -1.133459 23.003722 0.625745 0.000000 0.917754 0.000010 120.059453 -0.000003 -0.629534 0.000001 0.940221 0.000002 1.709737 22.439453 -0.000001 0.113772 1.960661 -88.303903 84.699407 -0.000028 -0.669734 -0.113771 0.388340 -0.630960 3.563448 130.782277 
0.000000 0.000000 0.000000 -0.000000 1.019410 20.357410 -0.000000 -0.000000 1.456275 -0.000000 -26.133687 -0.000000 -0.000000 0.000002 1.471446 -0.000002 -1.133455 24.404833 0.625745 0.000000 0.917755 -0.000001 119.149645 -0.000006 -0.629534 0.000001 0.940221 0.000002 1.709737 23.805086 -0.000001 0.113772 1.960661 -88.303923 84.378388 -0.000016 -0.669733 -0.113771 0.388339 -0.626455 3.563106 130.527756 
0.000000 0.000000 0.000000 -0.000000 1.019410 21.953107 -0.000000 -0.000000 1.456275 -0.000000 -24.655969 -0.000001 -0.000000 0.000002 1.471445 -0.000001 -1.133459 26.320346 0.625744 0.000000 0.917755 0.000005 117.905826 -0.000003 -0.629534 0.000001 0.940221 0.000001 1.709735 25.672092 -0.000000 0.113772 1.960661 -88.303916 83.939507 -0.000010 -0.669733 -0.113771 0.388340 -0.620293 3.562608 130.179813 
